# xmcd
#
# Track frame offsets: 
#        150
#        4347
#        29614
#        50398
#        72006
#        91692
#        112077
#        129783
#        152147
#        173012
#
# Disc length: 2594 seconds
#
# Revision: 0
# Processed by: cddbd v1.5.2PL0 Copyright (c) Steve Scherf et al.
# Submitted via: ExactAudioCopyFreeDBPlugin 1.0
#
DISCID=760a200a
DTITLE=Raxas - Instinto
DYEAR=2012
DGENRE=Metal
TTITLE0=Re-1nici0
TTITLE1=RaXaS
TTITLE2=Spíritu
TTITLE3=Déjate ver
TTITLE4=Luna de abril
TTITLE5=Lo que te gustó de mi
TTITLE6=Después de esta noche
TTITLE7=Paga el precio
TTITLE8=Dósis letal
TTITLE9=Que así sea
EXTD=
EXTT0=
EXTT1=
EXTT2=
EXTT3=
EXTT4=
EXTT5=
EXTT6=
EXTT7=
EXTT8=
EXTT9=
PLAYORDER=
